<?xml version="1.0" encoding="utf-8"?>
<svg version="1.1" xmlns="http://www.w3.org/2000/svg" xmlns:xlink="http://www.w3.org/1999/xlink" x="0px" y="0px"
	 viewBox="0 0 64 64" enable-background="new 0 0 64 64">
	<path fill="#bebebe" d="M21.2,52.9c-1.1-3.3-3.3-5.2-5.9-7C7.4,40.3,3.7,32.7,5.3,23c0.2-1.4,0.5-2.9,0.7-4.3C7.1,9.7,13.6,5.2,21.4,4
		c3.8-0.6,7.6-0.9,11.4-1.8c3.6-0.9,7.8,0.5,11.8,0.8c4,0.3,7,2.5,9.9,5.1c-1,0.8-1.9,1.7-2.9,2.5c0.3,0,0.5,0.1,0.8,0.1
		c0.6,2.3,1.3,4.7,1.7,7.1c0.6,3,1.3,6,1.4,9c0.1,7.4-0.1,14.8-0.3,22.2c0,1.3-0.9,2.5-1.5,4.1c0,0,0.2,0.3,0.4,0.6
		c2.1,3.1,1.6,5-2.1,5.9c-9.7,2.5-19.4,2.4-29.1,0.1C19.2,58.8,18.8,56.7,21.2,52.9z M20.4,13.2c-3.3,0.2-5.7,1.6-7.1,4.7
		c-2.3,5.4-2.2,10.9-1.2,16.5c0.6,3.1,2.9,5,5.6,6.7C18.7,31.6,19.6,22.5,20.4,13.2z"/>
</svg>
